<?xml version="1.0" standalone="no"?>
<!DOCTYPE svg PUBLIC "-//W3C//DTD SVG 20010904//EN"
 "http://www.w3.org/TR/2001/REC-SVG-20010904/DTD/svg10.dtd">
<svg version="1.0" xmlns="http://www.w3.org/2000/svg"
 width="1920.000000pt" height="400.000000pt" viewBox="0 0 1920.000000 400.000000"
 preserveAspectRatio="xMidYMid meet">

<g transform="translate(0.000000,400.000000) scale(0.100000,-0.100000)"
fill="#000000" stroke="none">
<path d="M10271 3883 c34 -65 110 -208 169 -318 99 -183 674 -1257 1228 -2290
123 -231 259 -484 301 -562 l76 -143 410 0 410 0 219 493 c120 270 298 671
395 889 97 219 179 398 182 398 3 0 62 -127 132 -282 117 -264 407 -914 588
-1318 l78 -175 409 -3 410 -2 132 247 c73 137 163 304 200 373 37 69 220 409
405 755 186 347 415 774 510 950 347 646 574 1072 581 1088 6 16 -39 17 -682
15 l-688 -3 -408 -905 c-225 -498 -412 -908 -416 -912 -4 -3 -189 405 -412
908 l-405 914 -434 -3 -433 -2 -83 -185 c-45 -102 -227 -513 -405 -914 l-323
-729 -22 44 c-12 24 -199 437 -415 917 l-394 872 -689 0 -689 0 63 -117z"/>
</g>
</svg>
