<?xml version="1.0" standalone="no"?>
<!DOCTYPE svg PUBLIC "-//W3C//DTD SVG 20010904//EN"
 "http://www.w3.org/TR/2001/REC-SVG-20010904/DTD/svg10.dtd">
<svg version="1.0" xmlns="http://www.w3.org/2000/svg"
 width="1920.000000pt" height="400.000000pt" viewBox="0 0 1920.000000 400.000000"
 preserveAspectRatio="xMidYMid meet">

<g transform="translate(0.000000,400.000000) scale(0.100000,-0.100000)"
fill="#000000" stroke="none">
<path d="M10040 3996 c0 -2 95 -181 211 -397 116 -217 250 -467 298 -557 l86
-162 244 2 243 3 237 532 c130 293 238 533 241 533 3 0 111 -240 242 -533
l236 -532 244 -2 243 -3 99 188 c55 103 189 353 298 555 109 203 198 371 198
373 0 2 -167 4 -370 4 l-370 0 -38 -81 -37 -82 -34 82 -35 81 -676 0 -676 0
-28 -67 c-16 -38 -33 -72 -37 -77 -4 -5 -24 25 -43 67 l-35 77 -370 0 c-204 0
-371 -2 -371 -4z"/>
</g>
</svg>
