<?xml version="1.0" standalone="no"?>
<!DOCTYPE svg PUBLIC "-//W3C//DTD SVG 20010904//EN"
 "http://www.w3.org/TR/2001/REC-SVG-20010904/DTD/svg10.dtd">
<svg version="1.0" xmlns="http://www.w3.org/2000/svg"
 width="1920.000000pt" height="400.000000pt" viewBox="0 0 1920.000000 400.000000"
 preserveAspectRatio="xMidYMid meet">

<g transform="translate(0.000000,400.000000) scale(0.100000,-0.100000)"
fill="#000000" stroke="none">
<path d="M5470 2905 l-1705 -914 0 -402 0 -402 485 -216 c267 -119 662 -295
878 -391 215 -96 392 -177 392 -180 0 -3 -199 -94 -442 -203 l-443 -197 1278
0 1277 0 0 403 0 402 -924 410 -924 410 61 31 c34 17 450 206 925 419 l862
389 0 678 c0 373 -3 678 -7 678 -5 -1 -775 -412 -1713 -915z"/>
</g>
</svg>
