<?xml version="1.0" standalone="no"?>
<!DOCTYPE svg PUBLIC "-//W3C//DTD SVG 20010904//EN"
 "http://www.w3.org/TR/2001/REC-SVG-20010904/DTD/svg10.dtd">
<svg version="1.0" xmlns="http://www.w3.org/2000/svg"
 width="1920.000000pt" height="400.000000pt" viewBox="0 0 1920.000000 400.000000"
 preserveAspectRatio="xMidYMid meet">

<g transform="translate(0.000000,400.000000) scale(0.100000,-0.100000)"
fill="#000000" stroke="none">
<path d="M1385 3856 c-104 -56 -356 -192 -560 -301 -203 -109 -438 -235 -521
-280 -84 -45 -186 -99 -228 -121 l-76 -39 0 -614 c0 -580 1 -613 18 -606 9 3
367 164 795 358 l777 351 0 678 c0 373 -3 678 -7 678 -5 0 -93 -47 -198 -104z"/>
<path d="M0 825 l0 -825 645 0 645 0 150 67 150 67 0 406 0 406 -172 76 c-95
42 -434 192 -753 333 -319 142 -599 266 -622 276 l-43 18 0 -824z"/>
</g>
</svg>
