<?xml version="1.0" standalone="no"?>
<!DOCTYPE svg PUBLIC "-//W3C//DTD SVG 20010904//EN"
 "http://www.w3.org/TR/2001/REC-SVG-20010904/DTD/svg10.dtd">
<svg version="1.0" xmlns="http://www.w3.org/2000/svg"
 width="1920.000000pt" height="400.000000pt" viewBox="0 0 1920.000000 400.000000"
 preserveAspectRatio="xMidYMid meet">

<g transform="translate(0.000000,400.000000) scale(0.100000,-0.100000)"
fill="#000000" stroke="none">
<path d="M9470 1585 c0 -2 164 -309 363 -682 200 -373 390 -729 423 -790 l59
-113 613 0 c336 0 612 3 612 6 0 4 -506 1129 -678 1507 l-35 77 -678 0 c-374
0 -679 -2 -679 -5z"/>
<path d="M12337 1258 c-80 -183 -238 -540 -350 -793 l-204 -460 1105 -3 c608
-1 1107 0 1109 2 2 2 -155 359 -348 795 l-352 791 -406 0 -406 0 -148 -332z"/>
<path d="M14941 1553 c-10 -21 -80 -175 -156 -343 -76 -168 -190 -422 -255
-565 -162 -358 -260 -574 -276 -612 l-14 -33 613 0 613 0 189 352 c417 778
524 978 580 1083 32 61 62 114 66 119 32 36 26 36 -666 36 l-675 0 -19 -37z"/>
</g>
</svg>
