<?xml version="1.0" standalone="no"?>
<!DOCTYPE svg PUBLIC "-//W3C//DTD SVG 20010904//EN"
 "http://www.w3.org/TR/2001/REC-SVG-20010904/DTD/svg10.dtd">
<svg version="1.0" xmlns="http://www.w3.org/2000/svg"
 width="1000.000000pt" height="400.000000pt" viewBox="0 0 1000.000000 400.000000"
 preserveAspectRatio="xMidYMid meet">

<g transform="translate(0.000000,400.000000) scale(0.100000,-0.100000)"
fill="#000000" stroke="none">
<path d="M4160 2440 l0 -1220 255 0 254 0 3 448 c3 502 0 478 80 562 45 47
121 86 184 96 102 15 218 -55 265 -159 24 -52 24 -53 27 -499 l3 -448 249 0
250 0 0 509 c0 296 -4 531 -10 562 -14 77 -73 191 -128 246 -52 53 -157 113
-252 143 -80 26 -220 44 -290 37 -111 -10 -239 -70 -335 -156 l-40 -35 -3 567
-2 567 -255 0 -255 0 0 -1220z"/>
<path d="M7460 2440 l0 -1220 250 0 250 0 0 1220 0 1220 -250 0 -250 0 0
-1220z"/>
<path d="M3130 2950 l0 -270 -392 -2 -393 -3 -175 -387 c-96 -214 -177 -388
-180 -388 -3 0 -82 174 -177 388 l-172 387 -173 3 -174 2 -54 -122 c-30 -68
-109 -246 -176 -396 l-121 -272 -128 282 c-70 156 -150 334 -178 396 l-50 112
-289 0 c-158 0 -288 -1 -288 -3 0 -4 107 -203 573 -1072 l204 -380 173 0 173
0 166 372 c159 359 166 372 179 347 13 -24 169 -374 279 -621 l45 -103 172 0
171 0 129 243 c291 545 629 1173 637 1181 5 6 9 -65 9 -167 l0 -176 103 -3
102 -3 6 -365 c5 -339 7 -370 27 -431 42 -127 126 -229 227 -275 138 -64 378
-58 538 12 34 15 64 29 65 30 2 2 -10 48 -27 103 -17 56 -45 146 -62 201 l-30
100 -31 -16 c-17 -9 -53 -18 -82 -21 -46 -5 -53 -2 -78 24 -42 46 -48 88 -48
376 l0 267 155 0 155 0 -2 188 -3 187 -152 3 -153 3 0 269 0 270 -250 0 -250
0 0 -270z"/>
<path d="M6915 2709 c-116 -19 -203 -69 -303 -173 l-61 -64 -3 102 -3 101
-250 0 -250 0 -3 -727 -2 -728 255 0 254 0 3 418 3 417 29 63 c51 111 136 162
270 162 81 0 160 -19 209 -49 19 -12 37 -21 41 -21 3 0 53 95 111 210 l105
211 -63 30 c-111 51 -226 68 -342 48z"/>
<path d="M8091 2658 c14 -27 427 -763 576 -1026 l103 -184 -250 -480 c-137
-264 -250 -482 -250 -484 0 -2 129 -4 288 -4 l287 0 189 363 c104 199 231 441
281 537 51 96 124 236 162 310 39 74 118 225 175 335 58 110 151 290 208 400
57 110 109 209 117 220 7 11 13 23 13 27 0 5 -130 8 -288 8 l-288 0 -174 -375
c-96 -206 -175 -374 -176 -372 -1 1 -55 99 -119 217 -64 118 -155 286 -202
373 l-86 157 -289 0 -289 0 12 -22z"/>
</g>
</svg>
